<svg width="14" height="14" viewBox="0 0 14 14" fill="none" xmlns="http://www.w3.org/2000/svg">
<path fill-rule="evenodd" clip-rule="evenodd" d="M3.57664 6.99994C3.57664 5.10921 5.10934 3.5765 7.00007 3.5765C8.89077 3.5765 10.4235 5.10921 10.4235 6.99994C10.4235 8.89064 8.89077 10.4233 7.00007 10.4233C5.10934 10.4233 3.57664 8.89064 3.57664 6.99994ZM4.77785 6.99994C4.77785 8.22723 5.77276 9.22214 7.00008 9.22214C8.22738 9.22214 9.22229 8.22723 9.22229 6.99994C9.22229 5.77262 8.22738 4.7777 7.00008 4.7777C5.77276 4.7777 4.77785 5.77262 4.77785 6.99994Z" fill="black" fill-opacity="0.4"/>
<path d="M10.5587 4.24123C11.0006 4.24123 11.3587 3.88308 11.3587 3.44125C11.3587 2.99941 11.0006 2.64123 10.5587 2.64123C10.1169 2.64123 9.75874 2.99941 9.75874 3.44125C9.75874 3.88308 10.1169 4.24123 10.5587 4.24123Z" fill="black" fill-opacity="0.4"/>
<path fill-rule="evenodd" clip-rule="evenodd" d="M7.00005 0.333252C5.18948 0.333252 4.96245 0.340926 4.25138 0.37337C3.54179 0.405735 3.05717 0.518443 2.63312 0.683257C2.19473 0.853601 1.82294 1.08156 1.4523 1.45218C1.08168 1.82282 0.853723 2.19461 0.683379 2.633C0.518565 3.05705 0.405857 3.54167 0.373493 4.25126C0.341048 4.96233 0.333374 5.18936 0.333374 6.99993C0.333374 8.81048 0.341048 9.03751 0.373493 9.74858C0.405857 10.4582 0.518565 10.9428 0.683379 11.3668C0.853723 11.8052 1.08168 12.177 1.4523 12.5477C1.82294 12.9183 2.19473 13.1462 2.63312 13.3166C3.05717 13.4814 3.54179 13.5941 4.25138 13.6265C4.96245 13.6589 5.18948 13.6666 7.00005 13.6666C8.8106 13.6666 9.03763 13.6589 9.7487 13.6265C10.4583 13.5941 10.9429 13.4814 11.367 13.3166C11.8054 13.1462 12.1771 12.9183 12.5478 12.5477C12.9184 12.177 13.1464 11.8052 13.3167 11.3668C13.4815 10.9428 13.5942 10.4582 13.6266 9.74858C13.659 9.03751 13.6667 8.81048 13.6667 6.99993C13.6667 5.18936 13.659 4.96233 13.6266 4.25126C13.5942 3.54167 13.4815 3.05705 13.3167 2.633C13.1464 2.19461 12.9184 1.82282 12.5478 1.45218C12.1771 1.08156 11.8054 0.853601 11.367 0.683257C10.9429 0.518443 10.4583 0.405735 9.7487 0.37337C9.03763 0.340926 8.8106 0.333252 7.00005 0.333252ZM7.00005 1.53445C8.78011 1.53445 8.99097 1.54125 9.69394 1.57333C10.3439 1.60297 10.6969 1.71157 10.9318 1.80287C11.243 1.92381 11.4651 2.06827 11.6984 2.30157C11.9317 2.53485 12.0761 2.75693 12.1971 3.06811C12.2884 3.30303 12.397 3.65602 12.4266 4.30602C12.4587 5.00899 12.4655 5.21985 12.4655 6.99994C12.4655 8.77999 12.4587 8.99085 12.4266 9.69383C12.397 10.3438 12.2884 10.6968 12.1971 10.9317C12.0761 11.2429 11.9317 11.465 11.6984 11.6983C11.4651 11.9316 11.243 12.076 10.9318 12.197C10.6969 12.2883 10.3439 12.3969 9.69394 12.4265C8.99108 12.4586 8.78024 12.4654 7.00005 12.4654C5.21983 12.4654 5.00903 12.4586 4.30613 12.4265C3.65614 12.3969 3.30314 12.2883 3.06823 12.197C2.75704 12.076 2.53496 11.9316 2.30169 11.6983C2.06841 11.465 1.92392 11.2429 1.80299 10.9317C1.71169 10.6968 1.60308 10.3438 1.57344 9.69383C1.54137 8.99085 1.53457 8.77999 1.53457 6.99994C1.53457 5.21985 1.54137 5.00899 1.57344 4.30602C1.60308 3.65602 1.71169 3.30303 1.80299 3.06811C1.92392 2.75693 2.06839 2.53485 2.30169 2.30157C2.53496 2.06827 2.75704 1.92381 3.06823 1.80287C3.30314 1.71157 3.65614 1.60297 4.30613 1.57333C5.0091 1.54125 5.21996 1.53445 7.00005 1.53445Z" fill="black" fill-opacity="0.4"/>
</svg>
